<svg width="55" height="55" viewBox="0 0 55 55" fill="none" xmlns="http://www.w3.org/2000/svg">
<path d="M40.1042 14.8958H40.1271M16.0417 4.58325H38.9583C45.2866 4.58325 50.4167 9.71332 50.4167 16.0416V38.9583C50.4167 45.2865 45.2866 50.4166 38.9583 50.4166H16.0417C9.71341 50.4166 4.58334 45.2865 4.58334 38.9583V16.0416C4.58334 9.71332 9.71341 4.58325 16.0417 4.58325ZM36.6667 26.0562C36.9495 27.9634 36.6237 29.9112 35.7357 31.6227C34.8477 33.3341 33.4426 34.7219 31.7204 35.5888C29.9982 36.4556 28.0465 36.7573 26.1429 36.451C24.2393 36.1447 22.4807 35.2459 21.1174 33.8826C19.754 32.5192 18.8552 30.7607 18.5489 28.8571C18.2426 26.9535 18.5443 25.0018 19.4112 23.2795C20.278 21.5573 21.6659 20.1522 23.3773 19.2642C25.0887 18.3762 27.0365 18.0504 28.9438 18.3333C30.8892 18.6217 32.6903 19.5283 34.081 20.919C35.4717 22.3096 36.3782 24.1107 36.6667 26.0562Z" stroke="#FFF1F1" stroke-width="4" stroke-linecap="round" stroke-linejoin="round"/>
</svg>
